<?xml version="1.0" encoding="UTF-8"?>
<svg width="24px" height="24px" viewBox="0 0 24 24" version="1.1" xmlns="http://www.w3.org/2000/svg" xmlns:xlink="http://www.w3.org/1999/xlink">
    <title>1786135C-0947-4571-B463-91AB276F0871</title>
    <g id="atom/icon/light/flexibilty" stroke="none" stroke-width="1" fill="none" fill-rule="evenodd">
        <path d="M5.8125,21.4666667 L0.720833333,16.9416667 C0.2625,16.5333333 0,15.9458333 0,15.3333333 C0,14.7208333 0.2625,14.1333333 0.720833333,13.725 L5.8125,9.2 C6.2,8.85416667 6.7,8.66666667 7.21666667,8.66666667 C8.38333333,8.66666667 9.33333333,9.6125 9.33333333,10.7833333 L9.33333333,11.3333333 L10.6666667,11.3333333 L13.3333333,11.3333333 L14.6666667,11.3333333 L15.3333333,11.3333333 C15.7,11.3333333 16,11.6333333 16,12 L16,12.6666667 L16,13.2166667 C16,13.65 16.35,14 16.7833333,14 C16.975,14 17.1583333,13.9291667 17.3041667,13.8041667 L22.3916667,9.27916667 C22.5666667,9.125 22.6666667,8.9 22.6666667,8.66666667 C22.6666667,8.43333333 22.5666667,8.2125 22.3916667,8.05416667 L17.3041667,3.52916667 C17.1625,3.4 16.975,3.33333333 16.7833333,3.33333333 C16.35,3.33333333 16,3.68333333 16,4.11666667 L16,4.66666667 L16,5.33333333 C16,5.7 15.7,6 15.3333333,6 L14.6666667,6 L10.6666667,6 C10.3,6 10,5.7 10,5.33333333 C10,4.96666667 10.3,4.66666667 10.6666667,4.66666667 L14.6666667,4.66666667 L14.6666667,4.11666667 C14.6666667,2.95 15.6125,2 16.7833333,2 C17.3,2 17.8,2.19166667 18.1875,2.53333333 L23.2791667,7.05833333 C23.7375,7.46666667 24,8.05 24,8.66666667 C24,9.28333333 23.7375,9.86666667 23.2791667,10.275 L18.1875,14.8 C17.8,15.1458333 17.3,15.3333333 16.7833333,15.3333333 C15.6166667,15.3333333 14.6666667,14.3875 14.6666667,13.2166667 L14.6666667,12.6666667 L13.3333333,12.6666667 L10.6666667,12.6666667 L9.33333333,12.6666667 L8.66666667,12.6666667 C8.3,12.6666667 8,12.3666667 8,12 L8,11.3333333 L8,10.7833333 C8,10.35 7.65,10 7.21666667,10 C7.025,10 6.84166667,10.0708333 6.69583333,10.1958333 L1.60833333,14.7208333 C1.43333333,14.875 1.33333333,15.1 1.33333333,15.3333333 C1.33333333,15.5666667 1.43333333,15.7875 1.60833333,15.9458333 L6.69583333,20.4708333 C6.8375,20.6 7.025,20.6666667 7.21666667,20.6666667 C7.65,20.6666667 8,20.3166667 8,19.8833333 L8,19.3333333 L8,18.6666667 C8,18.3 8.3,18 8.66666667,18 L9.33333333,18 L13.3333333,18 C13.7,18 14,18.3 14,18.6666667 C14,19.0333333 13.7,19.3333333 13.3333333,19.3333333 L9.33333333,19.3333333 L9.33333333,19.8833333 C9.33333333,21.05 8.3875,22 7.21666667,22 C6.7,22 6.2,21.8083333 5.8125,21.4666667 Z" id="Fill-1" fill="#171714"></path>
    </g>
</svg>