<?xml version="1.0" encoding="UTF-8"?>
<svg width="24px" height="24px" viewBox="0 0 24 24" version="1.1" xmlns="http://www.w3.org/2000/svg" xmlns:xlink="http://www.w3.org/1999/xlink">
    <title>125E75F5-C7F2-48D2-9477-D58197E05C6B</title>
    <g id="atom/icon/light/clock" stroke="none" stroke-width="1" fill="none" fill-rule="evenodd">
        <path d="M12.1907829,0.0145922199 C12.6044208,0.0145922199 12.9397406,0.349912004 12.9397406,0.76354992 C12.9397406,1.17718784 12.6044208,1.51250762 12.1907829,1.51250762 C6.39928453,1.51250762 1.70429682,6.2078919 1.70429682,11.999975 C1.70429682,17.7920582 6.39928453,22.4874425 12.1907829,22.4874425 C17.9823114,22.4874425 22.6772689,17.7920748 22.6772689,11.999975 C22.6772689,11.5863371 23.0125887,11.2510173 23.4262266,11.2510173 C23.8398646,11.2510173 24.1751843,11.5863371 24.1751843,11.999975 C24.1751843,18.6193214 18.8096165,23.9853579 12.1907829,23.9853579 C5.57198037,23.9853579 0.206381424,18.6193057 0.206381424,11.999975 C0.206381424,5.38064439 5.57198037,0.0145922199 12.1907829,0.0145922199 Z M12.7577365,20.0706613 C12.7926066,20.0706613 12.8208889,20.098946 12.8208889,20.1338148 L12.8208889,21.651718 C12.8208889,21.6865868 12.7926066,21.7148716 12.7577365,21.7148716 L11.6909394,21.7148716 C11.6560693,21.7148716 11.627787,21.6865868 11.627787,21.651718 L11.627787,20.1338148 C11.627787,20.098946 11.6560693,20.0706613 11.6909394,20.0706613 L12.7577365,20.0706613 Z M18.3762808,17.3099391 L18.4049271,17.3263907 L19.4781365,18.3996939 C19.5028093,18.4243688 19.5028093,18.4643569 19.4781365,18.4890318 L18.7238148,19.2434195 C18.6991396,19.2680968 18.6591475,19.2680968 18.6344723,19.2434195 L17.5612628,18.1701163 C17.5365631,18.1454143 17.5365631,18.1053018 17.5612618,18.0808263 L18.3155846,17.3263907 L18.3442308,17.3099391 L18.3762808,17.3099391 Z M6.10445472,17.3099395 L6.13310173,17.3263918 L6.88726059,18.0806641 C6.91212215,18.1053018 6.91212215,18.1454143 6.88742239,18.1701163 L5.81421294,19.2434195 C5.78953773,19.2680968 5.74954568,19.2680968 5.72487047,19.2434195 L4.97054872,18.4890318 C4.94587593,18.4643569 4.94587593,18.4243688 4.97054872,18.3996939 L6.04375817,17.3263907 L6.07240445,17.3099392 L6.10445472,17.3099395 Z M9.79070012,5.55874691 C9.95657976,5.47870206 10.1560191,5.54816788 10.2362442,5.7140152 L12.3295386,10.0431311 C12.7962389,9.95564352 13.2849379,10.0171985 13.7101215,10.2568649 L17.1536687,6.81301701 C17.28421,6.68241751 17.4958656,6.68241751 17.6264537,6.81301701 L17.9246533,7.1112426 C18.0551946,7.24179529 18.0551946,7.45346946 17.9246533,7.58402215 L14.4811061,11.0278233 C14.9188337,11.8044924 14.8156269,12.8037892 14.1544019,13.4650721 C13.3587506,14.260746 12.0687368,14.260746 11.2731324,13.4650721 C10.4774812,12.6693513 10.4842212,11.3908337 11.2798724,10.5951598 C11.3042582,10.5707718 11.3291589,10.5486308 11.3544808,10.5257408 L9.25655269,6.18716923 C9.17632761,6.02136872 9.24583417,5.82191192 9.41171382,5.74182026 Z M4.08024665,11.3924182 C4.11511676,11.3924182 4.14339907,11.420703 4.14339907,11.4555717 L4.14339907,12.522462 C4.14339907,12.5573308 4.11511676,12.5856156 4.08024665,12.5856156 L2.56247601,12.5856156 C2.5276059,12.5856156 2.49932359,12.5573308 2.49932359,12.522462 L2.49932359,11.4555717 C2.49932359,11.420703 2.5276059,11.3924182 2.56247601,11.3924182 L4.08024665,11.3924182 Z M21.8861952,11.3924135 C21.9210653,11.3924135 21.9493476,11.4206983 21.9493476,11.4555671 L21.9493476,12.5224573 C21.9493476,12.5573261 21.9210653,12.5856109 21.8861952,12.5856109 L20.3684245,12.5856109 C20.3335544,12.5856109 20.3052721,12.5573261 20.3052721,12.5224573 L20.3052721,11.4555671 C20.3052721,11.4206983 20.3335544,11.3924135 20.3684245,11.3924135 L21.8861952,11.3924135 Z M5.77886541,4.7699353 L6.85207487,5.84323849 C6.8572235,5.84838758 6.8572235,5.85671973 6.85207487,5.86186882 L6.09775311,6.61625646 C6.09260448,6.62140554 6.08427305,6.62140554 6.07912442,6.61625646 L5.00591496,5.54295327 C5.00076633,5.53780418 5.00076633,5.52947203 5.00591496,5.52436975 L5.76023672,4.7699353 C5.76538535,4.76478622 5.77371678,4.76478622 5.77886541,4.7699353 Z M12.7577365,2.26315744 C12.7926066,2.26315744 12.8208889,2.29144223 12.8208889,2.32631101 L12.8208889,3.84421422 C12.8208889,3.87908301 12.7926066,3.90736779 12.7577365,3.90736779 L11.6909394,3.90736779 C11.6560693,3.90736779 11.627787,3.87908301 11.627787,3.84421422 L11.627787,2.32631101 C11.627787,2.29144223 11.6560693,2.26315744 11.6909394,2.26315744 L12.7577365,2.26315744 Z" id="Path-2" fill="#171714" fill-rule="nonzero"></path>
    </g>
</svg>