<svg width="2273" height="3422" viewBox="0 0 2273 3422" fill="none" xmlns="http://www.w3.org/2000/svg">
<rect width="2273" height="3422" fill="#F4F4EC"/>
<g clip-path="url(#clip0_536_604)">
<rect width="1920" height="881" fill="#F4F4EC"/>
<ellipse cx="99" cy="1573.14" rx="1456" ry="1354.23" fill="#FCFCFA"/>
</g>
<g clip-path="url(#clip1_536_604)">
<rect width="1920" height="1444" transform="translate(0 881)" fill="#F4F4EC"/>
<ellipse cx="103" cy="1666.78" rx="1456" ry="1521.78" fill="#FCFCFA"/>
</g>
<g clip-path="url(#clip2_536_604)">
<rect width="1920" height="1036" transform="translate(0 2325)" fill="#F4F4EC"/>
<ellipse cx="101" cy="1678" rx="1456" ry="1518" fill="#FCFCFA"/>
</g>
<g clip-path="url(#clip3_536_604)">
<path d="M-1846.85 2774.49C-1499.19 2103.67 -802.624 2029.38 -399.415 2500.23C216.982 3220.04 843.82 3399.89 968.175 2863.32C1092.53 2326.76 1168.52 1954.13 1866.65 2206.7C2355.87 2383.7 2564.45 2084.96 2268.69 1791.23" stroke="#FA6400" stroke-width="24"/>
<path d="M-1846.85 2774.49C-1499.19 2103.67 -802.624 2029.38 -399.415 2500.23C216.982 3220.04 843.82 3399.89 968.175 2863.32C1092.53 2326.76 1168.52 1954.13 1866.65 2206.7C2355.87 2383.7 2564.45 2084.96 2268.69 1791.23" stroke="#E8E8E0" stroke-width="24"/>
</g>
<defs>
<clipPath id="clip0_536_604">
<rect width="1920" height="881" fill="white"/>
</clipPath>
<clipPath id="clip1_536_604">
<rect width="1920" height="1444" fill="white" transform="translate(0 881)"/>
</clipPath>
<clipPath id="clip2_536_604">
<rect width="1920" height="1036" fill="white" transform="translate(0 2325)"/>
</clipPath>
<clipPath id="clip3_536_604">
<rect width="2273" height="1145" fill="white" transform="translate(0 2044)"/>
</clipPath>
</defs>
</svg>
